HIERARCHY
ROOT Hips
{
  OFFSET 196.326 95.9168 97.7182
  CHANNELS 6 Xposition Yposition Zposition Zrotation Xrotation Yrotation
  JOINT LeftUpLeg
  {
    OFFSET 8.64259 1.95398 -2.38835
    CHANNELS 3 Zrotation Xrotation Yrotation
    JOINT LeftLeg
    {
      OFFSET 43.7702 0 0
      CHANNELS 3 Zrotation Xrotation Yrotation
      JOINT LeftFoot
      {
        OFFSET 40.6238 0 0
        CHANNELS 3 Zrotation Xrotation Yrotation
        JOINT LeftToeBase
        {
          OFFSET 12.7242 0 0
          CHANNELS 3 Zrotation Xrotation Yrotation
          End Site
          {
            OFFSET 0 0 0
          }
        }
      }
    }
  }
  JOINT RightUpLeg
  {
    OFFSET -8.2249 1.95398 -2.59336
    CHANNELS 3 Zrotation Xrotation Yrotation
    JOINT RightLeg
    {
      OFFSET 43.5653 0 0
      CHANNELS 3 Zrotation Xrotation Yrotation
      JOINT RightFoot
      {
        OFFSET 40.6238 0 0
        CHANNELS 3 Zrotation Xrotation Yrotation
        JOINT RightToeBase
        {
          OFFSET 12.7242 0 0
          CHANNELS 3 Zrotation Xrotation Yrotation
          End Site
          {
            OFFSET 0 0 0
          }
        }
      }
    }
  }
  JOINT Spine
  {
    OFFSET 0.165834 0.87714 6.61349
    CHANNELS 3 Zrotation Xrotation Yrotation
    JOINT Spine1
    {
      OFFSET 7.38963 1.71661e-005 0
      CHANNELS 3 Zrotation Xrotation Yrotation
      JOINT Spine2
      {
        OFFSET 11.9445 1.14441e-005 0
        CHANNELS 3 Zrotation Xrotation Yrotation
        JOINT Spine3
        {
          OFFSET 14.7254 4.19617e-005 0
          CHANNELS 3 Zrotation Xrotation Yrotation
          JOINT Spine4
          {
            OFFSET 10.9679 0 0
            CHANNELS 3 Zrotation Xrotation Yrotation
            JOINT RightShoulder
            {
              OFFSET 2.46616 -1.6653 3.69651
              CHANNELS 3 Zrotation Xrotation Yrotation
              JOINT RightArm
              {
                OFFSET 13.0012 0 0
                CHANNELS 3 Zrotation Xrotation Yrotation
                JOINT RightForeArm
                {
                  OFFSET 28.7848 1.52588e-005 0
                  CHANNELS 3 Zrotation Xrotation Yrotation
                  JOINT RightHand
                  {
                    OFFSET 26.5688 1.52588e-005 0
                    CHANNELS 3 Zrotation Xrotation Yrotation
                    End Site
                    {
                      OFFSET 0 0 0
                    }
                  }
                }
              }
            }
            JOINT LeftShoulder
            {
              OFFSET 2.38034 -1.29275 -3.75231
              CHANNELS 3 Zrotation Xrotation Yrotation
              JOINT LeftArm
              {
                OFFSET 16.3182 6.10351e-005 0
                CHANNELS 3 Zrotation Xrotation Yrotation
                JOINT LeftForeArm
                {
                  OFFSET 27.0901 0 0
                  CHANNELS 3 Zrotation Xrotation Yrotation
                  JOINT LeftHand
                  {
                    OFFSET 24.5451 1.52588e-005 0
                    CHANNELS 3 Zrotation Xrotation Yrotation
                    End Site
                    {
                      OFFSET 0 0 0
                    }
                  }
                }
              }
            }
            JOINT Neck
            {
              OFFSET 5.0226 -0.0266342 0
              CHANNELS 3 Zrotation Xrotation Yrotation
              JOINT Head
              {
                OFFSET 6.69363 2.86102e-005 0
                CHANNELS 3 Zrotation Xrotation Yrotation
                End Site
                {
                  OFFSET 0 0 0
                }
              }
            }
          }
        }
      }
    }
  }
}
MOTION
Frames:	15
Frame Time:	0.0416667
-121.319 9.98761 -119.553 0.246189 -2.6569 43.5705 -173.487 9.04588 90.4822 -20.744 30.7021 -1.43984 54.9271 1.85456 14.6153 100.557 62.7138 -13.6167 179.295 10.9946 90.0227 -29.0125 -7.31469 -3.03772 66.1276 -2.13435 -1.15572 64.3843 13.9498 43.0956 -0.106317 6.71996 -89.7325 13.4338 -0.081411 0.546009 1.76278 -0.0573154 0.549038 -20.7716 -0.241762 0.4963 -0.758953 -0.241738 0.496299 85.9628 -43.9098 -108.939 -0.681745 16.2262 45.2326 -30.4129 26.4471 -136.614 -59.6708 -12.6053 21.3428 -91.9499 -32.9806 70.7465 21.2386 -18.6271 57.9015 25.7644 -15.7114 -148.689 62.1253 19.5684 26.3333 36.5893 -6.59019 2.79404 24.0963 -8.34957 -3.1176 
-121.338 10.0452 -119.549 0.429439 -2.65098 43.4946 -173.51 8.83569 90.432 -20.4616 31.0152 -1.44184 54.181 1.29053 14.8003 103.404 62.0181 -17.5411 179.232 10.9417 89.9494 -29.1644 -7.2222 -3.04893 66.4238 -2.19562 -1.18473 65.4751 14.2522 42.3429 -0.0552376 6.74017 -89.6932 13.393 0.0388185 0.609379 1.7219 0.0656077 0.607086 -20.8121 -0.146106 0.592903 -0.799498 -0.146116 0.592887 86.4853 -44.3727 -107.935 -0.036931 15.6493 44.7175 -35.2032 30.7016 -133.61 -51.4988 -8.90331 18.0675 -90.1791 -30.443 73.1232 11.323 -18.0703 53.4387 29.5606 -21.4947 -146.286 62.4849 19.012 25.2902 36.4215 -7.0573 1.81663 24.8797 -8.042 -1.99531 
-121.383 10.0401 -119.56 0.559526 -2.63682 43.5033 -173.627 8.87532 90.4049 -20.734 31.0701 -1.36521 54.3429 1.50083 14.9213 106.469 61.113 -21.8476 179.232 10.9273 89.9947 -29.3676 -7.29858 -3.05286 66.4808 -2.18836 -1.17911 65.0832 13.7934 41.4909 -0.0260482 6.7567 -89.7221 13.36 0.0826732 0.545902 1.68892 0.106628 0.541706 -20.8454 -0.0852043 0.545507 -0.83269 -0.0851997 0.545504 87.3638 -43.5321 -106.78 1.22953 15.4075 44.3139 -34.767 30.5327 -133.619 -55.7272 -9.27741 16.9416 -91.076 -31.3217 71.755 15.5158 -18.7636 55.2238 27.6662 -18.6019 -147.313 63.0253 18.7913 24.67 36.61 -7.03469 2.3077 24.7769 -8.27039 -2.10118 
-121.358 10.0363 -119.557 0.461887 -2.64941 43.551 -173.617 8.91444 90.434 -20.7199 30.9988 -1.36191 54.1549 1.33591 14.9407 111.123 59.2037 -28.7941 179.264 10.9729 90.0232 -29.2557 -7.08723 -3.04226 66.3242 -2.15276 -1.1619 65.5987 14.3626 42.5157 0.065705 6.76569 -89.7614 13.3418 0.245726 0.44663 1.67084 0.265134 0.435377 -20.8638 0.100128 0.499826 -0.85109 0.100142 0.499845 88.7177 -42.9413 -104.73 2.42882 14.7171 43.6029 -35.7334 31.7795 -132.971 -50.8545 -9.16953 18.8203 -91.7678 -31.8123 70.6502 17.4028 -19.0458 55.9295 26.939 -17.3866 -147.819 63.0608 18.7951 24.6532 36.7704 -7.18734 2.08187 24.7419 -8.03281 -1.1405 
-121.29 10.1119 -119.529 0.362758 -2.89328 43.3455 -173.674 8.60782 90.1042 -20.4043 30.4014 -1.3381 54.2432 1.54162 14.9844 113.552 57.2671 -33.4177 179.313 11.0754 89.9218 -29.5194 -6.98333 -3.22486 66.0351 -2.00636 -1.07394 66.1853 14.4755 41.9815 0.171447 6.79396 -89.8041 13.2852 0.43481 0.337435 1.61427 0.449237 0.317957 -20.9209 0.313296 0.452504 -0.908228 0.313297 0.452496 90.2571 -41.7264 -102.494 4.56906 13.6357 42.5113 -36.6871 33.3023 -132.303 -49.7775 -9.26763 19.6026 -91.0633 -31.1307 71.7074 11.8315 -18.2354 52.3236 29.2277 -20.996 -146.223 61.6591 18.96 25.6671 36.5635 -7.13608 2.65777 24.9528 -8.16687 -0.884146 
-121.107 10.1604 -119.578 0.0189757 -3.36781 43.0189 -173.571 8.12059 89.6696 -19.8951 30.0993 -1.4959 54.9692 2.36147 15.2847 114.131 54.9445 -36.7524 179.129 11.2738 89.5251 -29.9515 -7.13005 -3.33006 65.386 -1.70115 -0.889663 67.1539 14.8104 41.5932 0.261901 6.81294 -89.86 13.2475 0.58728 0.206595 1.57667 0.595809 0.180542 -20.9591 0.498037 0.37354 -0.946488 0.49803 0.373559 91.0467 -39.6382 -101.703 5.64818 13.7124 41.8846 -36.2849 32.7777 -132.412 -50.0759 -9.40053 19.7063 -91.3089 -31.9344 71.5428 13.4809 -18.9396 52.4584 27.9979 -19.2746 -146.374 60.0906 17.9784 25.0151 36.9463 -6.9597 3.33807 24.542 -8.23925 -0.637491 
-120.89 10.2235 -119.763 -0.317929 -4.2434 42.862 -173.621 7.48563 89.3355 -19.8107 29.9422 -1.49579 56.0031 3.5878 16.0506 113.957 52.5972 -39.4617 178.95 11.0017 89.3245 -30.2182 -7.57432 -3.31768 65.4488 -1.73903 -0.913736 68.0504 13.6006 36.5585 0.38012 6.88899 -89.9631 13.0966 0.772322 -0.0218892 1.42586 0.770619 -0.0558475 -21.1111 0.74319 0.211253 -1.09844 0.743192 0.211262 92.4712 -38.0199 -99.6028 6.92431 13.2732 40.0855 -38.0982 33.9384 -131.481 -51.2782 -9.34528 19.1237 -91.2177 -33.8369 72.3756 14.4881 -21.7988 51.7236 26.8466 -17.6368 -147.061 57.5418 16.5642 24.103 37.2835 -6.55029 3.71253 24.5289 -7.92711 -0.278409 
-120.615 10.3044 -119.906 -0.936235 -4.85614 42.7248 -173.583 7.13022 89.0606 -19.2742 29.3301 -1.5172 56.1146 3.78274 15.9615 114.837 50.624 -42.5953 178.449 11.1193 89.1923 -30.1832 -5.54925 -2.72332 64.2753 -1.2996 -0.650009 72.1685 13.433 31.404 0.466483 6.92694 -90.0678 13.0213 0.893501 -0.244874 1.35066 0.881864 -0.283969 -21.187 0.925776 0.0350106 -1.17431 0.925792 0.0350121 93.7864 -36.9264 -97.4813 8.17175 12.4807 37.1977 -37.4208 34.1936 -131.57 -52.9792 -9.08016 17.6171 -90.5364 -35.3456 74.0754 13.2303 -26.1973 50.4444 27.0407 -17.9625 -147.646 53.307 15.051 23.8806 37.4545 -6.05984 3.62421 24.4109 -7.3851 -0.120682 
-120.412 10.3703 -120.019 -1.30118 -5.63755 42.3987 -173.701 6.23511 88.6589 -18.291 28.5122 -1.42153 55.9421 3.63571 15.4755 115.613 49.4135 -44.6848 177.753 10.8126 88.98 -30.2705 -2.95099 -1.98542 64.6338 -1.3489 -0.676643 72.468 12.7573 29.2083 0.532623 6.95972 -90.0975 12.9563 1.01075 -0.317714 1.28568 0.995768 -0.361891 -21.2526 1.05949 0.000760403 -1.23999 1.05948 0.000771493 94.2038 -36.0822 -96.8981 8.316 13.003 35.9391 -39.383 35.0121 -130.441 -51.9995 -9.01191 18.0387 -91.007 -36.3724 73.5685 18.5401 -30.8436 54.0501 25.58 -15.6071 -149.92 51.0679 14.0646 23.3354 36.7286 -5.62211 3.08971 25.2987 -6.54388 0.456263 
-120.252 10.435 -120.149 -1.60652 -6.3107 42.0533 -173.809 5.62303 88.2836 -17.778 28.5592 -1.43094 55.8898 3.64672 15.517 114.359 49.6317 -43.415 176.75 10.5513 88.5343 -30.2035 -0.516664 -0.914636 64.0399 -1.14874 -0.554505 74.05 13.3233 29.2095 0.53798 7.0222 -90.1967 12.8319 0.97416 -0.510145 1.16122 0.95076 -0.552538 -21.3767 1.08244 -0.193761 -1.36402 1.08243 -0.193764 95.0593 -35.0917 -95.5063 12.3669 8.24956 32.8294 -38.8393 37.5703 -130.251 -46.5304 -8.52538 19.458 -91.131 -37.2214 73.6179 26.2507 -35.1032 59.1538 22.9218 -10.5529 -152.612 50.1531 13.6052 22.9672 37.0677 -4.56757 3.55514 24.9909 -5.6598 0.837512 
-120.109 10.4826 -120.254 -2.2992 -6.87651 42.0709 -173.667 5.77588 88.305 -18.0123 28.9683 -1.57794 55.6183 3.61328 16.3746 112.241 51.5131 -39.3212 176.05 10.643 88.4445 -30.0563 1.4964 0.0612174 62.7732 -0.867592 -0.38754 77.2352 13.7442 27.3565 0.576104 7.0269 -90.367 12.8238 0.968477 -0.848746 1.15297 0.930183 -0.890544 -21.3841 1.17878 -0.518421 -1.37144 1.17877 -0.518431 95.8459 -32.7008 -94.4682 22.2501 -4.18566 28.4209 -38.4007 41.1625 -130.678 -55.1106 -9.14988 16.1391 -89.9614 -36.459 75.4225 46.3283 -41.8506 70.5652 18.37 -0.373264 -157.024 47.9524 11.9993 21.1062 37.5484 -3.06079 4.63027 24.5805 -4.89931 0.336188 
-119.764 10.505 -120.42 -3.35684 -7.39144 41.3697 -173.872 5.94987 87.5261 -18.0706 27.1714 -1.58398 56.1064 3.73277 15.2405 107.207 54.0092 -31.612 174.842 11.6081 87.3528 -31.1207 1.09653 0.967855 62.4217 -0.83987 -0.371574 81.0959 11.7424 19.7952 0.580536 6.97664 -90.5621 12.9246 0.883074 -1.2309 1.25332 0.828044 -1.26856 -21.2814 1.21216 -0.908604 -1.26879 1.21216 -0.90859 96.1505 -29.9211 -94.4005 26.2471 -16.9384 24.1658 -42.1791 45.798 -126.374 -55.8636 -10.762 18.75 -88.935 -34.521 76.6867 73.1561 -44.3701 84.9374 13.8403 12.6469 -158.922 48.2441 10.2338 17.2221 37.9025 -0.889226 5.58213 24.3177 -3.38492 0.0917956 
-119.453 11.0663 -120.878 -4.58166 -9.4527 40.2497 -174.094 5.24178 86.5296 -17.7766 26.8943 -1.69747 55.5522 3.49693 15.6799 99.2867 57.9294 -18.4337 172.646 12.4889 85.1202 -31.9292 0.077931 2.52474 60.2348 -0.254256 0.0080366 85.0076 10.2282 14.2396 0.831282 7.01226 -90.6533 12.857 1.33778 -1.46685 1.18583 1.27192 -1.52431 -21.3513 1.71674 -0.996991 -1.33867 1.71675 -0.996991 95.9176 -27.3798 -95.4207 26.1708 -23.5579 23.5394 -49.8872 50.474 -118.09 -55.6902 -12.0671 21.5493 -86.4824 -31.6737 80.4747 65.0683 -46.5174 72.9318 13.5957 10.5223 -155.498 47.5079 9.89059 16.8971 37.0143 0.343613 5.42638 24.4972 -1.85539 0.975839 
-118.832 11.6672 -121.559 -6.27387 -12.7042 38.966 -174.385 3.2668 85.2357 -15.9688 25.545 -1.65001 54.5616 2.85511 15.222 99.1572 59.1049 -16.7488 169.329 14.1027 82.1477 -35.5083 3.17564 4.9226 58.865 -0.0415892 0.179189 76.3336 7.37369 11.7745 0.993182 7.05624 -90.8181 12.7726 1.58117 -1.82324 1.1013 1.4994 -1.89105 -21.436 2.05597 -1.26377 -1.42336 2.05598 -1.26377 94.9442 -26.5202 -97.7184 22.6737 -25.8536 21.3107 -53.6838 51.9082 -114.638 -53.682 -12.5383 23.6566 -85.2159 -28.408 82.1653 81.8046 -50.656 80.2281 11.5322 16.6913 -153.573 43.5889 8.54914 15.7962 35.5983 2.60919 5.99196 24.4076 -0.0215231 0.575722 
-117.745 12.1853 -122.599 -10.8601 -17.1795 37.4579 -174.303 -0.271102 84.0529 -9.76698 23.1515 -1.86185 52.8647 2.35281 15.2113 100.849 58.4331 -19.4414 164.125 18.3295 77.9383 -41.0456 6.65338 8.59505 54.7343 0.594316 0.705841 66.1634 6.28758 14.47 1.25593 6.97638 -91.0989 12.9387 1.96649 -2.43522 1.26681 1.85745 -2.51936 -21.2695 2.60732 -1.73174 -1.25686 2.60731 -1.73174 93.1923 -24.9332 -101.962 17.6544 -24.5933 18.1965 -53.4501 50.0536 -114.306 -50.5614 -12.3407 25.0617 -83.154 -23.1292 85.3127 96.7758 -56.6905 86.2216 7.94945 23.4323 -145.32 39.2369 6.30704 12.3652 34.1697 5.185 5.64682 23.2902 2.5782 0.355537 
